<svg xmlns="http://www.w3.org/2000/svg" xmlns:xlink="http://www.w3.org/1999/xlink" viewBox="0 0 505.95 435.53">
  <defs>
    <style>
      .cls-1 {
        fill: url(#linear-gradient);
      }

      .cls-2 {
        fill: #108e9a;
      }

      .cls-3 {
        fill: #148f99;
      }

      .cls-4 {
        fill: #3ba0a0;
      }

      .cls-5 {
        fill: url(#_02);
      }

      .cls-6 {
        fill: #4ea597;
      }

      .cls-7 {
        fill: url(#linear-gradient-2);
      }

      .cls-8 {
        fill: url(#linear-gradient-3);
      }
    </style>
    <linearGradient id="linear-gradient" x1="75.17" y1="264.85" x2="514.48" y2="88.8" gradientUnits="userSpaceOnUse">
      <stop offset="0.18" stop-color="#0c65a9"/>
      <stop offset="0.34" stop-color="#106fb0"/>
      <stop offset="0.74" stop-color="#1884bf"/>
      <stop offset="1" stop-color="#1b8cc4"/>
    </linearGradient>
    <linearGradient id="_02" data-name="02" x1="305.67" y1="344.39" x2="503.04" y2="214.14" gradientUnits="userSpaceOnUse">
      <stop offset="0" stop-color="#138c9f"/>
      <stop offset="1" stop-color="#4ea597"/>
    </linearGradient>
    <linearGradient id="linear-gradient-2" x1="235.85" y1="238.93" x2="316.29" y2="160.64" gradientUnits="userSpaceOnUse">
      <stop offset="0" stop-color="#138c9f"/>
      <stop offset="0.14" stop-color="#178e9e"/>
      <stop offset="0.27" stop-color="#23939d"/>
      <stop offset="0.41" stop-color="#369b9a"/>
      <stop offset="0.52" stop-color="#4ea597"/>
    </linearGradient>
    <linearGradient id="linear-gradient-3" x1="235.52" y1="238.59" x2="315.96" y2="160.3" xlink:href="#_02"/>
  </defs>
  <g id="Layer_2" data-name="Layer 2">
    <g id="Layer_3" data-name="Layer 3">
      <g>
        <path class="cls-1" d="M496.22,194.4c-4.4-9.56-16.83-6.22-22.61-2.28-4.14-11.72-5.15-10.7-13.66-12.15,1.21-5.29,2.09-13.34,3-18.54C478.71,71,379.34,22.61,311.41,78.36c-17,13.94-25,25.93-36.72,44.47C257.8,95.55,238.9,72.27,209.22,58.22,166.35,37.91,113.56,53.8,94,99c-23.92,55.16,3.9,112.84,44.14,151.88,28,27.19,62,48.38,86.83,79,15.52,19,20.1,31.41,28.71,53.77l.75,51.91c-12.2-63.16-55.84-89.65-105.65-123.66C78.84,264.15,23.41,197.34,34,107.43,42.24,37,105.14-8.91,175.14,1.46c47.67,7.06,71.19,30.71,99,67.19,35.6-54.48,93.26-77.16,155-51.43a121.82,121.82,0,0,1,64.94,65.4C508.22,117.59,510.67,159.57,496.22,194.4Z"/>
        <path class="cls-2" d="M228.18,417.84l-1.25.23-4.62-5c-17.9-19.64-59.22-47.18-83.73-59.66C43.1,304.7-33.25,207.15,14.78,95.62c.46,2.91-1.68,19-2,23.45C5.5,214.5,70.87,286.59,146.48,334.72,171.72,350.79,218.69,388.26,228.18,417.84Z"/>
        <path class="cls-3" d="M163.49,71.75c4.06-.84,11-.31,15.1.79-2.39,2.26-17,5.48-22.83,9.46a71.09,71.09,0,0,0-29.9,44.93c-7.34,37.89,14.53,76.88,38.26,104.73,18.18,21.34,37.12,36.83,53.42,60.65C163.26,252.67,78.07,185.6,112.67,107.7,122.1,86.47,140.77,74.6,163.49,71.75Z"/>
        <path class="cls-4" d="M373.42,75.14a45.18,45.18,0,0,1,10.65-.2C410,77.7,429.92,90.3,440.39,116.06c6,14.78,4.49,29,3.49,44.39l-4.11-19.24c-.13-.56-.27-1.11-.45-1.65-3.27-9.81-11.17-29.61-19.17-37.11-20.81-19.54-37-24.16-64.08-24.38C362.44,76.73,367.55,75.91,373.42,75.14Z"/>
        <g>
          <path class="cls-5" d="M489.25,207.25a3,3,0,0,1,.56,3.5c-2.59,5.08-6.52,10.28-9.42,15.13C467.15,248,456.15,272,441.76,293.31c-22.76,33.74-62.58,63.86-100.34,78.38-1.69.66-3.44,1.23-5.2,1.73-1.79,1.32-20.87,8.83-24.38,10.5-27.36,13-40.81,27.56-57.43,51.61l-.75-51.91c5.78-27.36,10.19-54.79,33.35-75,19.3-18.41,39.31-27.54,60.83-42.77,7-5,15.31-17.74,18.78-18.9,14.07,5.42,3.86,25.47-1.28,32.85-6.74,9.72-33.39,27.12-31.19,38.27,19,17.16,72.76-25,86.21-41,13.75-16.42,39.37-63.09,60.84-70.45a10.82,10.82,0,0,1,6.82-.05A2.73,2.73,0,0,1,489.25,207.25Z"/>
          <path class="cls-6" d="M428.61,203.65h0a1.92,1.92,0,0,1,1,1.18,8.32,8.32,0,0,1,.38,2.32c-2.77,30.16-7.67,57-28.78,78.92l-.95.2-.84.17a151.28,151.28,0,0,0,8.16-25.52c5-20.79,3-41.46,18.85-56.93A1.93,1.93,0,0,1,428.61,203.65Z"/>
          <path class="cls-6" d="M459.26,195.11a2.43,2.43,0,0,0-3.38-1.83l3.38,1.83C460.45,213.29,441,235.6,431,250.83l-.86,1.2c-.62-2.91.62-7.55,1.33-10.51,4.36-18.3,7.41-37.45,24.43-48.24"/>
          <path class="cls-6" d="M399.73,230a.72.72,0,0,1,1.24.24c5.79,20.16-1.36,50.25-16,65.27a3.29,3.29,0,0,1,0-1.57C390.48,275.07,387.6,245.54,399.73,230Z"/>
        </g>
        <g>
          <path class="cls-7" d="M273.8,204.62s-1.09-.85-1.22-.69c-.3.37,13.69,10.32,15.45,20.63.34,2,.15,3.52-.73,4.53-1.62,1.85-5,1.29-6.57,1-8.64-1.53-14.64-9.16-17.08-12.35a52.58,52.58,0,0,1-7.78-14.41,62.88,62.88,0,0,1-3.6-19.5H236.64a6.36,6.36,0,0,0-6.36,6.36V214a6.37,6.37,0,0,0,6.36,6.37H255.1v18.46a6.37,6.37,0,0,0,6.37,6.36h23.77a6.36,6.36,0,0,0,6.36-6.36v-8.72a23.52,23.52,0,0,0-8.4-18C280.58,209.88,277.47,207.46,273.8,204.62Z"/>
          <path class="cls-8" d="M310.06,183.85H291.6V165.39a6.37,6.37,0,0,0-6.36-6.37H261.47a6.37,6.37,0,0,0-6.37,6.37v8.13c2.41,1.69,6.28,4.35,11.14,7.46,12.89,8.25,15.53,8.62,21,13.69a57.65,57.65,0,0,1,11.46,14.8,59,59,0,0,1,4.53,10.88h6.82a6.37,6.37,0,0,0,6.37-6.37V190.21A6.37,6.37,0,0,0,310.06,183.85Z"/>
        </g>
      </g>
    </g>
  </g>
</svg>
